<mxfile host="app.diagrams.net" modified="2022-05-03T04:28:06.576Z" agent="5.0 (Macintosh; Intel Mac OS X 10_15_7) AppleWebKit/537.36 (KHTML, like Gecko) Chrome/100.0.4896.127 Safari/537.36" etag="4_QBkSc4aJO6I5zccAcw" version="17.5.0" type="github">
  <diagram id="9X83xyHHJJmfBA0ohdcl" name="Page-1">
    <mxGraphModel dx="1248" dy="752" grid="1" gridSize="10" guides="1" tooltips="1" connect="1" arrows="1" fold="1" page="1" pageScale="1" pageWidth="827" pageHeight="1169" math="0" shadow="0">
      <root>
        <mxCell id="0" />
        <mxCell id="1" parent="0" />
        <mxCell id="UoN4vVhOyEZ5V7Tr6vK--5" value="&lt;b&gt;&lt;font style=&quot;font-size: 15px&quot; color=&quot;#ff3333&quot;&gt;异步链路&lt;/font&gt;&lt;/b&gt;" style="text;html=1;strokeColor=none;fillColor=none;align=center;verticalAlign=middle;whiteSpace=wrap;rounded=0;" vertex="1" parent="1">
          <mxGeometry x="170" y="432" width="90" height="30" as="geometry" />
        </mxCell>
        <mxCell id="UoN4vVhOyEZ5V7Tr6vK--6" value="" style="rounded=0;whiteSpace=wrap;html=1;" vertex="1" parent="1">
          <mxGeometry x="170" y="462" width="410" height="180" as="geometry" />
        </mxCell>
        <mxCell id="UoN4vVhOyEZ5V7Tr6vK--17" value="Download" style="rounded=0;whiteSpace=wrap;html=1;fontSize=15;fillColor=#eeeeee;strokeColor=#36393d;" vertex="1" parent="1">
          <mxGeometry x="180" y="470" width="110" height="35" as="geometry" />
        </mxCell>
        <mxCell id="UoN4vVhOyEZ5V7Tr6vK--18" value="Upload" style="rounded=0;whiteSpace=wrap;html=1;fontSize=15;fillColor=#eeeeee;strokeColor=#36393d;" vertex="1" parent="1">
          <mxGeometry x="320" y="470" width="110" height="35" as="geometry" />
        </mxCell>
        <mxCell id="UoN4vVhOyEZ5V7Tr6vK--19" value="Intersection" style="rounded=0;whiteSpace=wrap;html=1;fontSize=15;fillColor=#eeeeee;strokeColor=#36393d;" vertex="1" parent="1">
          <mxGeometry x="460" y="470" width="110" height="35" as="geometry" />
        </mxCell>
        <mxCell id="UoN4vVhOyEZ5V7Tr6vK--26" value="ExternalAPI" style="rounded=0;whiteSpace=wrap;html=1;fontSize=15;fillColor=#eeeeee;strokeColor=#36393d;" vertex="1" parent="1">
          <mxGeometry x="180" y="519" width="110" height="35" as="geometry" />
        </mxCell>
        <mxCell id="UoN4vVhOyEZ5V7Tr6vK--27" value="ID-Mapping" style="rounded=0;whiteSpace=wrap;html=1;fontSize=15;fillColor=#eeeeee;strokeColor=#36393d;" vertex="1" parent="1">
          <mxGeometry x="320" y="519" width="110" height="35" as="geometry" />
        </mxCell>
        <mxCell id="UoN4vVhOyEZ5V7Tr6vK--28" value="....." style="rounded=0;whiteSpace=wrap;html=1;fontSize=15;fillColor=#eeeeee;strokeColor=#36393d;" vertex="1" parent="1">
          <mxGeometry x="460" y="519" width="110" height="35" as="geometry" />
        </mxCell>
        <mxCell id="UoN4vVhOyEZ5V7Tr6vK--1" value="Actor" style="shape=umlActor;verticalLabelPosition=bottom;verticalAlign=top;html=1;outlineConnect=0;" vertex="1" parent="1">
          <mxGeometry x="10" y="210" width="50" height="110" as="geometry" />
        </mxCell>
        <mxCell id="UoN4vVhOyEZ5V7Tr6vK--3" value="" style="endArrow=none;dashed=1;html=1;rounded=0;fontStyle=1;strokeWidth=2;" edge="1" parent="1">
          <mxGeometry width="50" height="50" relative="1" as="geometry">
            <mxPoint x="50" y="412" as="sourcePoint" />
            <mxPoint x="630" y="412" as="targetPoint" />
          </mxGeometry>
        </mxCell>
        <mxCell id="UoN4vVhOyEZ5V7Tr6vK--7" value="&lt;font color=&quot;#000000&quot;&gt;metrics&lt;/font&gt;" style="rounded=0;whiteSpace=wrap;html=1;fontSize=15;fillColor=#f9f7ed;strokeColor=#36393d;" vertex="1" parent="1">
          <mxGeometry x="649" y="180" width="60" height="460" as="geometry" />
        </mxCell>
        <mxCell id="UoN4vVhOyEZ5V7Tr6vK--9" value="&lt;font color=&quot;#000000&quot;&gt;zhiyan&lt;br&gt;logs&lt;/font&gt;" style="rounded=0;whiteSpace=wrap;html=1;fontSize=15;fillColor=#f9f7ed;strokeColor=#36393d;" vertex="1" parent="1">
          <mxGeometry x="729" y="180" width="60" height="460" as="geometry" />
        </mxCell>
        <mxCell id="UoN4vVhOyEZ5V7Tr6vK--10" value="Retry" style="rounded=0;whiteSpace=wrap;html=1;fontSize=15;fillColor=#d5e8d4;strokeColor=#82b366;" vertex="1" parent="1">
          <mxGeometry x="180" y="601" width="190" height="30" as="geometry" />
        </mxCell>
        <mxCell id="UoN4vVhOyEZ5V7Tr6vK--11" value="idempotent" style="rounded=0;whiteSpace=wrap;html=1;fontSize=15;fillColor=#d5e8d4;strokeColor=#82b366;" vertex="1" parent="1">
          <mxGeometry x="380" y="601" width="190" height="30" as="geometry" />
        </mxCell>
        <mxCell id="UoN4vVhOyEZ5V7Tr6vK--12" value="" style="shape=flexArrow;endArrow=classic;html=1;rounded=0;fontSize=15;fontColor=#000000;strokeWidth=1;" edge="1" parent="1">
          <mxGeometry width="50" height="50" relative="1" as="geometry">
            <mxPoint x="590" y="284" as="sourcePoint" />
            <mxPoint x="640" y="284" as="targetPoint" />
          </mxGeometry>
        </mxCell>
        <mxCell id="UoN4vVhOyEZ5V7Tr6vK--13" value="" style="shape=flexArrow;endArrow=classic;html=1;rounded=0;fontSize=15;fontColor=#000000;strokeWidth=1;" edge="1" parent="1">
          <mxGeometry width="50" height="50" relative="1" as="geometry">
            <mxPoint x="590" y="519.5" as="sourcePoint" />
            <mxPoint x="640" y="519.5" as="targetPoint" />
          </mxGeometry>
        </mxCell>
        <mxCell id="UoN4vVhOyEZ5V7Tr6vK--14" value="Uniform Error Handler" style="rounded=0;whiteSpace=wrap;html=1;fontSize=15;fillColor=#ffcccc;strokeColor=#36393d;" vertex="1" parent="1">
          <mxGeometry x="180" y="563" width="390" height="30" as="geometry" />
        </mxCell>
        <mxCell id="UoN4vVhOyEZ5V7Tr6vK--29" value="" style="endArrow=classic;html=1;rounded=0;fontSize=15;fontColor=#000000;strokeWidth=1;entryX=0.25;entryY=0;entryDx=0;entryDy=0;exitX=0.25;exitY=1;exitDx=0;exitDy=0;" edge="1" parent="1" source="UoN4vVhOyEZ5V7Tr6vK--2" target="UoN4vVhOyEZ5V7Tr6vK--6">
          <mxGeometry width="50" height="50" relative="1" as="geometry">
            <mxPoint x="30" y="520" as="sourcePoint" />
            <mxPoint x="80" y="470" as="targetPoint" />
          </mxGeometry>
        </mxCell>
        <mxCell id="UoN4vVhOyEZ5V7Tr6vK--30" value="create" style="edgeLabel;html=1;align=center;verticalAlign=middle;resizable=0;points=[];fontSize=15;fontColor=#000000;" vertex="1" connectable="0" parent="UoN4vVhOyEZ5V7Tr6vK--29">
          <mxGeometry x="-0.4615" y="1" relative="1" as="geometry">
            <mxPoint y="-7" as="offset" />
          </mxGeometry>
        </mxCell>
        <mxCell id="UoN4vVhOyEZ5V7Tr6vK--31" value="" style="endArrow=classic;html=1;rounded=0;fontSize=15;fontColor=#000000;strokeWidth=1;entryX=0.75;entryY=1;entryDx=0;entryDy=0;exitX=0.75;exitY=0;exitDx=0;exitDy=0;" edge="1" parent="1" source="UoN4vVhOyEZ5V7Tr6vK--6" target="UoN4vVhOyEZ5V7Tr6vK--2">
          <mxGeometry width="50" height="50" relative="1" as="geometry">
            <mxPoint x="70" y="530" as="sourcePoint" />
            <mxPoint x="120" y="480" as="targetPoint" />
          </mxGeometry>
        </mxCell>
        <mxCell id="UoN4vVhOyEZ5V7Tr6vK--32" value="callback" style="edgeLabel;html=1;align=center;verticalAlign=middle;resizable=0;points=[];fontSize=15;fontColor=#000000;" vertex="1" connectable="0" parent="UoN4vVhOyEZ5V7Tr6vK--31">
          <mxGeometry x="-0.4872" relative="1" as="geometry">
            <mxPoint x="1" as="offset" />
          </mxGeometry>
        </mxCell>
        <mxCell id="UoN4vVhOyEZ5V7Tr6vK--33" value="" style="shape=flexArrow;endArrow=classic;html=1;rounded=0;fontSize=15;fontColor=#000000;strokeWidth=1;" edge="1" parent="1">
          <mxGeometry width="50" height="50" relative="1" as="geometry">
            <mxPoint x="80" y="260" as="sourcePoint" />
            <mxPoint x="150" y="260" as="targetPoint" />
          </mxGeometry>
        </mxCell>
        <mxCell id="UoN4vVhOyEZ5V7Tr6vK--34" value="&lt;font style=&quot;font-size: 12px&quot;&gt;Operation&lt;/font&gt;" style="text;html=1;strokeColor=none;fillColor=none;align=center;verticalAlign=middle;whiteSpace=wrap;rounded=0;fontSize=15;fontColor=#000000;" vertex="1" parent="1">
          <mxGeometry x="80" y="210" width="60" height="30" as="geometry" />
        </mxCell>
        <mxCell id="UoN4vVhOyEZ5V7Tr6vK--2" value="" style="rounded=0;whiteSpace=wrap;html=1;" vertex="1" parent="1">
          <mxGeometry x="170" y="184" width="410" height="180" as="geometry" />
        </mxCell>
        <mxCell id="UoN4vVhOyEZ5V7Tr6vK--4" value="&lt;b&gt;&lt;font style=&quot;font-size: 15px&quot; color=&quot;#ff3333&quot;&gt;同步链路&lt;/font&gt;&lt;/b&gt;" style="text;html=1;strokeColor=none;fillColor=none;align=center;verticalAlign=middle;whiteSpace=wrap;rounded=0;" vertex="1" parent="1">
          <mxGeometry x="170" y="154" width="90" height="30" as="geometry" />
        </mxCell>
        <mxCell id="UoN4vVhOyEZ5V7Tr6vK--35" value="Async Task Hook" style="rounded=0;whiteSpace=wrap;html=1;fontSize=15;fillColor=#eeeeee;strokeColor=#36393d;" vertex="1" parent="1">
          <mxGeometry x="180" y="324" width="390" height="30" as="geometry" />
        </mxCell>
        <mxCell id="UoN4vVhOyEZ5V7Tr6vK--36" value="Message Bus" style="rounded=0;whiteSpace=wrap;html=1;fontSize=15;fillColor=#eeeeee;strokeColor=#36393d;" vertex="1" parent="1">
          <mxGeometry x="180" y="286" width="390" height="30" as="geometry" />
        </mxCell>
        <mxCell id="UoN4vVhOyEZ5V7Tr6vK--42" value="人群圈选" style="rounded=0;whiteSpace=wrap;html=1;fontSize=12;fontColor=#000000;" vertex="1" parent="1">
          <mxGeometry x="180" y="195" width="110" height="35" as="geometry" />
        </mxCell>
        <mxCell id="UoN4vVhOyEZ5V7Tr6vK--43" value="洞察分析" style="rounded=0;whiteSpace=wrap;html=1;fontSize=12;fontColor=#000000;" vertex="1" parent="1">
          <mxGeometry x="320" y="195" width="110" height="35" as="geometry" />
        </mxCell>
        <mxCell id="UoN4vVhOyEZ5V7Tr6vK--44" value="人群组合" style="rounded=0;whiteSpace=wrap;html=1;fontSize=12;fontColor=#000000;" vertex="1" parent="1">
          <mxGeometry x="460" y="195" width="110" height="35" as="geometry" />
        </mxCell>
        <mxCell id="UoN4vVhOyEZ5V7Tr6vK--45" value="人群接出" style="rounded=0;whiteSpace=wrap;html=1;fontSize=12;fontColor=#000000;" vertex="1" parent="1">
          <mxGeometry x="180" y="240" width="110" height="35" as="geometry" />
        </mxCell>
        <mxCell id="UoN4vVhOyEZ5V7Tr6vK--46" value="服务申请" style="rounded=0;whiteSpace=wrap;html=1;fontSize=12;fontColor=#000000;" vertex="1" parent="1">
          <mxGeometry x="320" y="240" width="110" height="35" as="geometry" />
        </mxCell>
        <mxCell id="UoN4vVhOyEZ5V7Tr6vK--47" value="人群管理" style="rounded=0;whiteSpace=wrap;html=1;fontSize=12;fontColor=#000000;" vertex="1" parent="1">
          <mxGeometry x="460" y="240" width="110" height="35" as="geometry" />
        </mxCell>
      </root>
    </mxGraphModel>
  </diagram>
</mxfile>
